<svg xmlns="http://www.w3.org/2000/svg" viewBox="0 9.600000381469727 153.39999389648438 35" data-asc="0.892" width="153.39999389648438" height="35"><defs/><g fill="#000000"><g transform="translate(0, 0)"><path d="M7.40 44.60L0 9.60L4.35 9.60L10.30 40.35L14.95 18.70L19.65 18.70L24.35 40.35L30.25 9.60L34.60 9.60L27.35 44.60L21.45 44.60L17.35 23.65L13.30 44.60L7.40 44.60ZM40.30 44.60L40.30 9.60L55.55 9.60L55.55 13L44.70 13L44.70 24.20L53.50 24.20L53.50 27.60L44.70 27.60L44.70 41.20L56.05 41.20L56.05 44.60L40.30 44.60ZM61.70 9.60L70.20 9.60Q74.85 9.60 77.15 11.73Q79.45 13.85 79.45 18.40Q79.45 20.90 78.53 22.98Q77.60 25.05 76.20 26Q78.15 27.05 79.43 29.15Q80.70 31.25 80.70 33.95Q80.70 38.55 78.43 41.58Q76.15 44.60 69.45 44.60L61.70 44.60L61.70 9.60M69.25 24.25Q72.25 24.25 73.90 22.73Q75.55 21.20 75.55 18.30Q75.55 15.45 73.95 14.18Q72.35 12.90 69.25 12.90L66.10 12.90L66.10 24.25L69.25 24.25M69.20 41.30Q72.85 41.30 74.68 39.58Q76.50 37.85 76.50 34.10Q76.50 30.75 74.35 29.20Q72.20 27.65 69.25 27.65L66.10 27.65L66.10 41.30L69.20 41.30ZM85.40 41.30L90.85 41.30Q93.70 41.30 94.98 39.60Q96.25 37.90 96.25 35.40Q96.25 33.45 95.53 32.02Q94.80 30.60 93.75 29.65Q92.70 28.70 90.90 27.45Q89.00 26.15 87.83 25.07Q86.65 24 85.85 22.35Q85.05 20.70 85.05 18.40Q85.05 14.40 87.45 12Q89.85 9.60 94.10 9.60L98.15 9.60L98.15 12.90L94.30 12.90Q91.90 12.90 90.65 14.45Q89.40 16 89.40 18.05Q89.40 20.05 90.55 21.35Q91.70 22.65 94.05 24.30Q96.20 25.85 97.50 27.07Q98.80 28.30 99.73 30.30Q100.65 32.30 100.65 35.10Q100.65 39.80 97.98 42.20Q95.30 44.60 90.65 44.60L85.40 44.60L85.40 41.30ZM105.55 44.60L105.55 9.60L109.95 9.60L109.95 44.60L105.55 44.60ZM121.60 44.60L121.60 12.90L114.60 12.90L114.60 9.60L133 9.60L133 12.90L126.00 12.90L126.00 44.60L121.60 44.60ZM137.65 44.60L137.65 9.60L152.90 9.60L152.90 13L142.05 13L142.05 24.20L150.85 24.20L150.85 27.60L142.05 27.60L142.05 41.20L153.40 41.20L153.40 44.60L137.65 44.60Z"/></g></g></svg>
